<?xml version="1.0"?>
<svg xmlns="http://www.w3.org/2000/svg" viewBox="0 0 80 80">
    <path style="line-height:normal;text-indent:0;text-align:start;text-decoration-line:none;text-decoration-style:solid;text-decoration-color:#000;text-transform:none;block-progression:tb;isolation:auto;mix-blend-mode:normal" d="M 40 7 C 21.786448 7 7 21.786448 7 40 C 7 58.213552 21.786448 73 40 73 C 58.213552 73 73 58.213552 73 40 C 73 21.786448 58.213552 7 40 7 z M 40 9 C 57.132672 9 71 22.867328 71 40 C 71 57.132672 57.132672 71 40 71 C 22.867328 71 9 57.132672 9 40 C 9 22.867328 22.867328 9 40 9 z M 40 11 A 2 2 0 0 0 38 13 A 2 2 0 0 0 40 15 A 2 2 0 0 0 42 13 A 2 2 0 0 0 40 11 z M 33.021484 12.919922 A 1 1 0 0 0 32.951172 12.921875 A 1 1 0 0 0 32.753906 12.955078 A 1 1 0 0 0 32.046875 14.179688 A 1 1 0 0 0 33.271484 14.886719 A 1 1 0 0 0 33.978516 13.662109 A 1 1 0 0 0 33.021484 12.919922 z M 46.980469 12.921875 A 1 1 0 0 0 46.023438 13.664062 A 1 1 0 0 0 46.730469 14.888672 A 1 1 0 0 0 47.955078 14.181641 A 1 1 0 0 0 47.248047 12.955078 A 1 1 0 0 0 46.980469 12.921875 z M 26.476562 15.617188 A 1 1 0 0 0 26 15.75 A 1 1 0 0 0 25.632812 17.117188 A 1 1 0 0 0 27 17.482422 A 1 1 0 0 0 27.365234 16.117188 A 1 1 0 0 0 26.476562 15.617188 z M 53.453125 15.619141 A 1 1 0 0 0 52.632812 16.119141 A 1 1 0 0 0 53 17.484375 A 1 1 0 0 0 54.365234 17.119141 A 1 1 0 0 0 54 15.751953 A 1 1 0 0 0 53.453125 15.619141 z M 40 17 A 1 1 0 0 0 39 18 A 1 1 0 0 0 40 19 A 1 1 0 0 0 41 18 A 1 1 0 0 0 40 17 z M 20.921875 19.908203 A 1 1 0 0 0 20.201172 20.201172 A 1 1 0 0 0 20.201172 21.615234 A 1 1 0 0 0 21.615234 21.615234 A 1 1 0 0 0 21.615234 20.201172 A 1 1 0 0 0 20.921875 19.908203 z M 59.105469 19.908203 A 1 1 0 0 0 58.384766 20.201172 A 1 1 0 0 0 58.384766 21.615234 A 1 1 0 0 0 59.798828 21.615234 A 1 1 0 0 0 59.798828 20.201172 A 1 1 0 0 0 59.105469 19.908203 z M 40 21 A 1 1 0 0 0 39 22 A 1 1 0 0 0 40 23 A 1 1 0 0 0 41 22 A 1 1 0 0 0 40 21 z M 47.191406 21.310547 L 40.650391 36.066406 C 40.437414 36.030889 40.222534 36 40 36 C 37.802706 36 36 37.802706 36 40 C 36 42.197294 37.802706 44 40 44 C 40.737498 44 41.422226 43.784562 42.017578 43.431641 L 50.435547 51.849609 L 51.849609 50.435547 L 43.431641 42.017578 C 43.784562 41.422226 44 40.737498 44 40 C 44 38.739536 43.395226 37.621684 42.474609 36.886719 L 49.019531 22.121094 L 47.191406 21.310547 z M 63.357422 25.5 A 1 1 0 0 0 62.880859 25.632812 A 1 1 0 0 0 62.515625 26.998047 A 1 1 0 0 0 63.880859 27.365234 A 1 1 0 0 0 64.248047 25.998047 A 1 1 0 0 0 63.357422 25.5 z M 16.570312 25.501953 A 1 1 0 0 0 15.75 26 A 1 1 0 0 0 16.117188 27.365234 A 1 1 0 0 0 17.482422 27 A 1 1 0 0 0 17.117188 25.634766 A 1 1 0 0 0 16.570312 25.501953 z M 13.910156 32.013672 A 1 1 0 0 0 12.953125 32.753906 A 1 1 0 0 0 13.660156 33.978516 A 1 1 0 0 0 14.884766 33.271484 A 1 1 0 0 0 14.177734 32.046875 A 1 1 0 0 0 13.910156 32.013672 z M 66.117188 32.013672 A 1 1 0 0 0 65.820312 32.046875 A 1 1 0 0 0 65.113281 33.271484 A 1 1 0 0 0 66.337891 33.978516 A 1 1 0 0 0 67.044922 32.753906 A 1 1 0 0 0 66.117188 32.013672 z M 13 38 A 2 2 0 0 0 11 40 A 2 2 0 0 0 13 42 A 2 2 0 0 0 15 40 A 2 2 0 0 0 13 38 z M 40 38 C 41.116414 38 42 38.883586 42 40 C 42 41.116414 41.116414 42 40 42 C 38.883586 42 38 41.116414 38 40 C 38 38.883586 38.883586 38 40 38 z M 67 38 A 2 2 0 0 0 65 40 A 2 2 0 0 0 67 42 A 2 2 0 0 0 69 40 A 2 2 0 0 0 67 38 z M 18 39 A 1 1 0 0 0 17 40 A 1 1 0 0 0 18 41 A 1 1 0 0 0 19 40 A 1 1 0 0 0 18 39 z M 22 39 A 1 1 0 0 0 21 40 A 1 1 0 0 0 22 41 A 1 1 0 0 0 23 40 A 1 1 0 0 0 22 39 z M 58 39 A 1 1 0 0 0 57 40 A 1 1 0 0 0 58 41 A 1 1 0 0 0 59 40 A 1 1 0 0 0 58 39 z M 62 39 A 1 1 0 0 0 61 40 A 1 1 0 0 0 62 41 A 1 1 0 0 0 63 40 A 1 1 0 0 0 62 39 z M 13.957031 45.988281 A 1 1 0 0 0 13.660156 46.021484 A 1 1 0 0 0 12.953125 47.248047 A 1 1 0 0 0 14.177734 47.955078 A 1 1 0 0 0 14.884766 46.730469 A 1 1 0 0 0 13.957031 45.988281 z M 66.070312 45.990234 A 1 1 0 0 0 65.113281 46.732422 A 1 1 0 0 0 65.820312 47.957031 A 1 1 0 0 0 67.044922 47.25 A 1 1 0 0 0 66.337891 46.025391 A 1 1 0 0 0 66.070312 45.990234 z M 16.59375 52.5 A 1 1 0 0 0 16.117188 52.632812 A 1 1 0 0 0 15.75 53.998047 A 1 1 0 0 0 17.117188 54.365234 A 1 1 0 0 0 17.482422 52.998047 A 1 1 0 0 0 16.59375 52.5 z M 63.333984 52.501953 A 1 1 0 0 0 62.515625 53.001953 A 1 1 0 0 0 62.880859 54.367188 A 1 1 0 0 0 64.248047 54.001953 A 1 1 0 0 0 63.880859 52.634766 A 1 1 0 0 0 63.333984 52.501953 z M 40 57 A 1 1 0 0 0 39 58 A 1 1 0 0 0 40 59 A 1 1 0 0 0 41 58 A 1 1 0 0 0 40 57 z M 20.921875 58.091797 A 1 1 0 0 0 20.201172 58.384766 A 1 1 0 0 0 20.201172 59.798828 A 1 1 0 0 0 21.615234 59.798828 A 1 1 0 0 0 21.615234 58.384766 A 1 1 0 0 0 20.921875 58.091797 z M 59.105469 58.091797 A 1 1 0 0 0 58.384766 58.384766 A 1 1 0 0 0 58.384766 59.798828 A 1 1 0 0 0 59.798828 59.798828 A 1 1 0 0 0 59.798828 58.384766 A 1 1 0 0 0 59.105469 58.091797 z M 40 61 A 1 1 0 0 0 39 62 A 1 1 0 0 0 40 63 A 1 1 0 0 0 41 62 A 1 1 0 0 0 40 61 z M 53.474609 62.380859 A 1 1 0 0 0 52.998047 62.515625 A 1 1 0 0 0 52.632812 63.880859 A 1 1 0 0 0 53.998047 64.248047 A 1 1 0 0 0 54.365234 62.880859 A 1 1 0 0 0 53.474609 62.380859 z M 26.451172 62.384766 A 1 1 0 0 0 25.632812 62.882812 A 1 1 0 0 0 26 64.25 A 1 1 0 0 0 27.365234 63.882812 A 1 1 0 0 0 27 62.517578 A 1 1 0 0 0 26.451172 62.384766 z M 40 65 A 2 2 0 0 0 38 67 A 2 2 0 0 0 40 69 A 2 2 0 0 0 42 67 A 2 2 0 0 0 40 65 z M 33.001953 65.082031 A 1 1 0 0 0 32.044922 65.822266 A 1 1 0 0 0 32.751953 67.046875 A 1 1 0 0 0 33.976562 66.339844 A 1 1 0 0 0 33.269531 65.115234 A 1 1 0 0 0 33.001953 65.082031 z M 47.025391 65.082031 A 1 1 0 0 0 46.728516 65.115234 A 1 1 0 0 0 46.021484 66.339844 A 1 1 0 0 0 47.246094 67.046875 A 1 1 0 0 0 47.953125 65.822266 A 1 1 0 0 0 47.025391 65.082031 z"/>
</svg>
